<?xml version="1.0" standalone="no"?>
<!DOCTYPE svg PUBLIC "-//W3C//DTD SVG 20010904//EN"
 "http://www.w3.org/TR/2001/REC-SVG-20010904/DTD/svg10.dtd">
<svg version="1.0" xmlns="http://www.w3.org/2000/svg"
 width="520.000000pt" height="520.000000pt" viewBox="0 0 520.000000 520.000000"
 preserveAspectRatio="xMidYMid meet">
<metadata>
Created by potrace 1.11, written by Peter Selinger 2001-2013
</metadata>
<g transform="translate(0.000000,520.000000) scale(0.100000,-0.100000)"
fill="#000000" stroke="none">
<path d="M2355 5189 c-607 -58 -1194 -340 -1621 -780 -847 -875 -974 -2216
-306 -3234 197 -300 433 -538 730 -736 880 -585 2004 -585 2884 0 1187 790
1513 2393 730 3586 -101 154 -181 254 -306 384 -494 509 -1181 796 -1886 790
-74 -1 -175 -6 -225 -10z m-1109 -2329 c216 -492 405 -932 421 -977 15 -46 30
-83 33 -83 3 0 29 62 58 138 29 75 223 515 430 977 l378 840 177 3 177 2 0
-1200 0 -1200 -141 0 -140 0 5 978 c3 537 7 1004 10 1037 6 69 7 70 -29 -50
-20 -67 -731 -1695 -843 -1933 l-16 -33 -69 3 -68 3 -410 920 c-365 821 -438
993 -466 1113 -5 18 -7 -434 -5 -1003 l3 -1035 -140 0 -141 0 0 1200 0 1200
192 -2 192 -3 392 -895z m2085 333 c0 -493 2 -565 14 -548 8 11 227 265 488
565 l473 545 177 3 178 2 -273 -302 c-151 -167 -385 -426 -520 -576 l-247
-274 555 -624 554 -624 -197 1 -198 0 -482 567 c-265 312 -491 578 -502 592
l-20 25 -1 -592 0 -593 -140 0 -140 0 0 1200 0 1200 140 0 140 0 1 -567z"/>
</g>
</svg>
