<?xml version="1.0" standalone="no"?>
<!DOCTYPE svg PUBLIC "-//W3C//DTD SVG 20010904//EN"
 "http://www.w3.org/TR/2001/REC-SVG-20010904/DTD/svg10.dtd">
<svg version="1.0" xmlns="http://www.w3.org/2000/svg"
 width="16.000000pt" height="16.000000pt" viewBox="0 0 16.000000 16.000000"
 preserveAspectRatio="xMidYMid meet">
<metadata>
Created by potrace 1.11, written by Peter Selinger 2001-2013
</metadata>
<g transform="translate(0.000000,16.000000) scale(0.002286,-0.002286)"
fill="#000000" stroke="none">
<path d="M3255 6990 c-177 -10 -319 -31 -515 -77 -1336 -306 -2356 -1328
-2654 -2655 -104 -465 -110 -973 -15 -1443 192 -954 777 -1794 1599 -2292 454
-275 912 -434 1440 -499 185 -23 595 -23 780 0 611 75 1178 295 1660 645 816
591 1327 1483 1431 2496 16 159 16 542 0 680 -74 636 -273 1168 -631 1680
-209 301 -521 611 -838 835 -477 337 -1051 552 -1652 620 -133 15 -439 20
-605 10z m-2112 -1942 c24 -19 1025 -2310 1122 -2570 10 -26 21 -46 25 -43 4
3 20 35 36 72 221 535 1112 2529 1136 2545 7 4 115 8 241 8 l227 0 0 -1615 0
-1615 -191 0 -190 0 5 623 c3 342 8 955 11 1362 4 407 8 751 11 765 2 14 -11
-15 -29 -65 -75 -202 -672 -1581 -1024 -2365 -162 -360 -137 -320 -202 -319
-31 0 -73 3 -94 7 l-38 7 -403 905 c-562 1264 -709 1608 -758 1770 -11 38 -13
-158 -16 -1322 l-2 -1368 -190 0 -190 0 0 1615 0 1615 248 0 c183 0 252 -3
265 -12z m3341 -730 c4 -409 10 -746 14 -749 4 -4 151 160 327 364 716 831
969 1118 989 1122 11 3 118 4 238 3 l216 -3 -660 -730 c-363 -401 -676 -749
-695 -773 l-36 -43 20 -22 c129 -143 1451 -1635 1457 -1644 6 -10 -48 -13
-256 -13 l-263 0 -40 49 c-22 27 -326 385 -675 796 l-635 747 -3 -796 -2 -796
-185 0 -185 0 0 1615 0 1615 183 0 184 0 7 -742z"/>
</g>
</svg>
